<?xml version="1.0" encoding="utf-8"?>
<!-- Generator: Adobe Illustrator 14.0.0, SVG Export Plug-In . SVG Version: 6.00 Build 43363)  -->
<!DOCTYPE svg PUBLIC "-//W3C//DTD SVG 1.1//EN" "http://www.w3.org/Graphics/SVG/1.1/DTD/svg11.dtd">
<svg version="1.1" id="facebook" xmlns="http://www.w3.org/2000/svg" xmlns:xlink="http://www.w3.org/1999/xlink" x="0px" y="0px"
	 width="400px" height="300px" viewBox="0 0 400 300" enable-background="new 0 0 400 300" xml:space="preserve">
<path id="b" fill="#3B5998" d="M218.145,131.059c-5.48-0.586-10.224,1.075-14.232,5.896v-1.499l0,0v-26.023v-0.288v-1.757
	l-14.515,1.757v68.436h14.515v-4.062c1.959,1.396,3.863,3.078,6.091,3.875c8.456,3.033,19.608,0.561,23.513-10.75
	c2.504-7.26,2.439-14.699,0.553-22.037C231.977,136.453,226.55,131.953,218.145,131.059z M220.314,160.695
	c-0.641,4.512-4.23,6.875-8.496,6.545c-1.064-0.082-2.028-0.301-2.894-0.641c-3.438-1.973-4.477-5.275-4.778-7.35
	c-0.002,0.001-0.006,0.001-0.006,0.003c-0.235-3.212-0.488-9.921,1.076-13.093c1.328-2.432,3.649-3.756,6.725-3.857
	c4.371-0.145,7.68,2.023,8.328,6.461C220.847,152.672,220.875,156.792,220.314,160.695z"/>
<path id="o_1_" fill="#3B5998" d="M269.587,131.903c-5.043-1.349-10.139-1.332-15.17,0.009c-7.536,2.006-12.588,6.774-14.216,14.359
	c-0.889,4.14-1.065,8.539-0.831,12.783c0.537,9.709,6.542,16.623,15.858,18.771c0.131,0.029,0.269,0.055,0.398,0.085h-0.003
	c0,0,0.028,0.003,0.067,0.013c0.36,0.072,0.72,0.137,1.078,0.191c0.12,0.011,0.244,0.021,0.361,0.033c0.004,0,0.007,0,0.01,0
	c0.453,0.084,0.995,0.146,1.565,0.188c1.823,0.194,4.146,0.332,6.082,0.104c0.013,0,0.021-0.004,0.03-0.006
	c0.1-0.002,0.199-0.002,0.297-0.008c9.622-0.502,16.923-6.566,19.054-15.875c1.168-5.104,1.168-10.232,0.038-15.338
	C282.438,139.199,277.576,134.041,269.587,131.903z M270.203,159.96c-0.05,0.304-0.101,0.601-0.168,0.897
	c-0.964,4.281-4.073,6.601-8.223,6.408c-4.459-0.205-7.518-2.812-7.946-7.268c-0.31-3.256-0.335-6.578-0.064-9.835
	c0.423-5.14,3.64-7.952,8.461-7.856c3.964,0.078,6.787,2.324,7.795,6.135C270.972,152.273,270.291,159.088,270.203,159.96z"/>
<path id="f" fill="#3B5998" d="M51.684,131.663h-10.36v-6.89c0.757-6.513,11.516-5.275,11.516-5.275l0.003-0.445l-0.003-0.05v-10.7
	h-0.001v-0.002h-0.008c-0.37-0.088-21.4-5.079-25.578,10.927c0,0.004,0,0.009-0.005,0.012c-0.008,0.035-0.019,0.07-0.027,0.105
	c-0.657,2.001-0.612,11.167-0.604,12.317h-8.98v12.254h9.537v33.334h13.887v-33.333h10.622l1.196-12.254H51.684z"/>
<path id="a" fill="#3B5998" d="M84.803,137.526c-0.17-0.188-0.339-0.37-0.484-0.522v-0.002c-0.023-0.022-0.042-0.043-0.065-0.066
	c-0.202-0.21-0.344-0.35-0.344-0.35l0,0c-3.27-3.325-4.504-4.152-7.065-4.907c-9.85-2.901-19.439,2.256-22.476,12.167
	c-1.866,6.088-1.893,12.355-0.799,18.521c2.363,13.355,12.296,17.828,22.883,15.623c3.248-0.676,5.662-2.7,7.902-5.514
	c0,0,0.202-0.248,0.449-0.729v5.879h13.547v-45.911H84.804L84.803,137.526L84.803,137.526L84.803,137.526z M83.61,160.628
	c-0.454,4.247-3.889,6.798-7.949,6.638c-4.16-0.162-6.913-2.391-7.812-6.383c-1.077-5.682,0.183-12.429,0.29-12.977
	c1.088-3.811,3.86-5.696,7.929-5.602c3.996,0.09,7.075,2.457,7.525,6.594C84.015,152.77,84.026,156.756,83.61,160.628z"/>
<path id="c" fill="#3B5998" d="M139.725,174.335c-0.628-2.3-1.344-4.567-2.037-6.761l-0.653-2.436c0,0-16.979,8.151-19.627-7.336
	c-0.244-2.556-0.169-5.193,0.183-7.718c0.66-4.763,3.564-7.312,8.185-7.747c1.561-0.148,3.185-0.072,4.731,0.188
	c2.104,0.355,4.158,0.988,6.461,1.557c0.8-2.447,1.619-4.871,2.381-7.311c0.121-0.382,0.22-0.711,0.299-1.007h0.002l0.382-1.467
	c-0.096-0.194-0.328-0.396-0.638-0.593c0,0,0,0,0,0.002c-0.39-0.327-1.055-0.6-2.094-0.979c-0.416-0.152-0.832-0.288-1.249-0.417
	c-0.374-0.119-0.617-0.189-0.617-0.189h0.002c-4.461-1.276-9.04-1.375-13.692-0.884c-9.805,1.036-16.459,6.822-18.306,16.375
	c-0.969,5.025-0.923,10.113,0.189,15.154c1.666,7.549,6.242,12.424,13.681,14.606c4.854,1.423,9.827,1.495,14.777,0.724
	c2.081-0.326,5.066-1.406,7.208-2.175l0.816-0.288l-0.385-1.305L139.725,174.335z"/>
<path id="e" fill="#3B5998" d="M184.423,156.375c-0.065-3.18-0.022-6.374-0.473-9.497c-1.239-8.563-6.453-13.982-14.885-15.397
	c-3.218-0.539-6.622-0.468-9.892-0.156c-8.95,0.854-15.743,6.428-17.135,14.818c-0.846,5.09-0.954,10.49-0.271,15.6
	c1.033,7.689,4.775,12.588,11.253,14.939c0.001,0,0.001,0,0.003,0c0.028,0,0.056,0.006,0.085,0.01
	c-0.003,0.004-0.002,0.004-0.003,0.006c2.957,0.884,17.426,4.668,30.18-1.741l-0.512-1.878c-0.005,0.004-0.013,0.004-0.018,0.004
	c-0.591-2.506-1.301-4.98-1.969-7.467l-0.072-0.242c0,0-0.266,0.096-0.735,0.246c-0.01,0-0.023,0-0.033,0.003
	c-0.558,0.144-1.107,0.313-1.654,0.498c-0.102,0.032-0.202,0.065-0.304,0.095c-1.931,0.545-4.691,1.215-7.605,1.59
	c-2.447,0.248-4.917,0.258-7.413,0.041c-4.05-0.668-7.15-2.84-7.002-7.967h2.314c7.941,0,15.88,0,23.822-0.002
	c0.188,0,0.38,0.002,0.568-0.002l-0.001,0.004c0,0,1.706-0.021,1.777-0.037c0,0-0.001-0.451,0-0.508L184.423,156.375z
	 M171.366,150.115h-15.685c0.082-3.12,0.472-6.021,3.246-7.786c2.944-1.871,6.197-1.941,9.226-0.265
	C171.214,143.756,171.454,146.811,171.366,150.115z"/>
<polygon id="k" fill="#3B5998" points="382.363,132.193 366.965,132.193 353.591,153.102 353.591,109.476 353.591,109.189 
	353.591,107.43 339.075,109.189 339.075,177.626 353.591,177.626 353.591,156.682 366.965,177.654 382.363,177.654 367.851,154.887 
	"/>
<path id="o" fill="#3B5998" d="M319.096,131.897c-5.043-1.352-10.142-1.335-15.173,0.006c-7.535,2.008-12.586,6.774-14.213,14.359
	c-0.888,4.139-1.064,8.539-0.831,12.785c0.534,9.706,6.542,16.623,15.856,18.77c0.132,0.033,0.269,0.057,0.401,0.086h-0.004
	c0,0,0.024,0.006,0.065,0.013c0.357,0.071,0.722,0.142,1.078,0.192c0.121,0.013,0.244,0.021,0.363,0.029
	c0.004,0.002,0.008,0.002,0.01,0.002c0.455,0.086,0.994,0.148,1.563,0.192c1.826,0.196,4.15,0.333,6.085,0.104
	c0.01-0.004,0.018-0.004,0.031-0.008c0.101,0,0.197,0,0.293-0.006c9.622-0.502,16.924-6.568,19.056-15.873
	c1.169-5.105,1.169-10.234,0.042-15.344C331.944,139.191,327.085,134.033,319.096,131.897z M319.708,159.951
	c-0.049,0.307-0.1,0.604-0.167,0.9c-0.968,4.279-4.073,6.596-8.222,6.406c-4.457-0.207-7.517-2.813-7.945-7.27
	c-0.311-3.254-0.339-6.575-0.068-9.832c0.43-5.143,3.642-7.955,8.469-7.857c3.957,0.075,6.781,2.321,7.789,6.133
	C320.474,152.266,319.8,159.081,319.708,159.951z"/>
</svg>
